solid test_tetrahedron
	facet normal 0.0 -0.89442719 0.447213596
		outer loop
			vertex -0.5 -0.4330127 0.0
			vertex 0.5 -0.4330127 0.0
			vertex 0 0 0.86602540
		endloop
	endfacet
	facet normal -0.84016805 0.48507125 0.24253563
		outer loop
			vertex -0.5 -0.4330127 0.0
			vertex 0 0 0.86602540
			vertex 0 0.4330127 0.0
		endloop
	endfacet
	facet normal 0.84016805 0.48507125 0.24253563
		outer loop
			vertex 0.0 0.4330127 0.0
			vertex 0 0 0.86602540
			vertex 0.5 -0.4330127 0.0
		endloop
	endfacet
	facet normal 0 0 -1
		outer loop
			vertex 0.5 -0.4330127 0.0
			vertex -0.5 -0.4330127 0.0
			vertex 0 0.4330127 0 
		endloop
	endfacet
endsolid
